<svg xmlns="http://www.w3.org/2000/svg" viewBox="531 430 2056 2071"><g fill="rgb(21,94,195)"><g><path d="M569 2472 c-25 -23 -32 -38 -36 -78 -5 -48 -3 -51 117 -239 122 -189 159 -247 509 -793 99 -156 181 -288 181 -294 0 -5 -42 -97 -92 -203 -93 -193 -93 -193 -351 -194 -274 0 -288 -2 -324 -50 -41 -56 -17 -141 49 -171 39 -18 67 -20 339 -20 291 0 297 0 330 23 36 24 73 99 614 1235 121 254 225 462 231 462 6 0 75 -45 154 -100 112 -78 152 -100 178 -100 75 0 129 59 119 132 -8 58 -15 64 -247 223 -63 43 -134 91 -156 107 -58 41 -116 53 -155 32 -35 -18 -44 -35 -454 -894 -54 -113 -101 -208 -104 -213 -4 -4 -25 21 -47 55 -23 35 -181 284 -353 553 -172 270 -328 505 -347 523 -46 44 -109 45 -155 4z"/></g></g></svg>
